<svg width="1200" height="630" viewBox="0 0 1200 630" fill="none" xmlns="http://www.w3.org/2000/svg">
  <rect width="1200" height="630" rx="42" fill="#07131A"/>
  <circle cx="1026" cy="80" r="210" fill="url(#cyanGlow)" opacity="0.34"/>
  <circle cx="165" cy="558" r="250" fill="url(#greenGlow)" opacity="0.25"/>
  <path d="M84 132H1116" stroke="#173240" stroke-width="1" opacity="0.95"/>
  <path d="M84 566H1116" stroke="#173240" stroke-width="1" opacity="0.7"/>

  <text x="84" y="80" fill="#EAF6F8" font-family="Inter, ui-sans-serif, system-ui, sans-serif" font-size="52" font-weight="760" letter-spacing="-1.5">repo-to-skill</text>
  <text x="84" y="112" fill="#73E5F3" font-family="JetBrains Mono, ui-monospace, monospace" font-size="17" letter-spacing="2.8">本地优先 · 仓库知识技能包</text>
  <text x="754" y="74" fill="#8EA8B2" font-family="Inter, ui-sans-serif, system-ui, sans-serif" font-size="20">把本地仓库转换成可复用的</text>
  <text x="754" y="104" fill="#EAF6F8" font-family="Inter, ui-sans-serif, system-ui, sans-serif" font-size="26" font-weight="700">AI 编程代理技能包</text>

  <g transform="translate(84 178)">
    <rect width="220" height="220" rx="30" fill="#0B1D27" stroke="#275669"/>
    <rect x="26" y="38" width="168" height="120" rx="18" fill="#102C37" stroke="#3C7182"/>
    <path d="M52 74H168M52 103H150M52 132H178" stroke="#73E5F3" stroke-width="8" stroke-linecap="round"/>
    <text x="28" y="188" fill="#EAF6F8" font-family="Inter, ui-sans-serif, system-ui, sans-serif" font-size="24" font-weight="720">本地仓库</text>
    <text x="28" y="214" fill="#8EA8B2" font-family="Inter, ui-sans-serif, system-ui, sans-serif" font-size="15">源码留在你的机器上</text>
  </g>

  <g transform="translate(350 178)">
    <rect width="220" height="220" rx="30" fill="#0B1D27" stroke="#275669"/>
    <circle cx="110" cy="88" r="49" fill="#112B35" stroke="#73E5F3" stroke-width="3"/>
    <path d="M88 86L104 102L136 68" stroke="#91F2B6" stroke-width="9" stroke-linecap="round" stroke-linejoin="round"/>
    <text x="28" y="188" fill="#EAF6F8" font-family="Inter, ui-sans-serif, system-ui, sans-serif" font-size="24" font-weight="720">只读扫描</text>
    <text x="28" y="214" fill="#8EA8B2" font-family="Inter, ui-sans-serif, system-ui, sans-serif" font-size="15">文件、命令、模块</text>
  </g>

  <g transform="translate(616 178)">
    <rect width="220" height="220" rx="30" fill="#0B1D27" stroke="#275669"/>
    <circle cx="62" cy="72" r="18" fill="#73E5F3"/>
    <circle cx="150" cy="70" r="18" fill="#91F2B6"/>
    <circle cx="104" cy="132" r="18" fill="#F5C56B"/>
    <path d="M80 72H132M73 86L93 118M139 86L116 119" stroke="#4C7C8C" stroke-width="5" stroke-linecap="round"/>
    <text x="28" y="188" fill="#EAF6F8" font-family="Inter, ui-sans-serif, system-ui, sans-serif" font-size="24" font-weight="720">推理地图</text>
    <text x="28" y="214" fill="#8EA8B2" font-family="Inter, ui-sans-serif, system-ui, sans-serif" font-size="15">关系与任务入口</text>
  </g>

  <g transform="translate(882 178)">
    <rect width="220" height="220" rx="30" fill="#0B1D27" stroke="#275669"/>
    <path d="M66 44H144L174 76V160C174 171 165 180 154 180H66C55 180 46 171 46 160V64C46 53 55 44 66 44Z" fill="#102C37" stroke="#73E5F3" stroke-width="3"/>
    <path d="M143 45V78H176" stroke="#73E5F3" stroke-width="3"/>
    <path d="M76 98H142M76 124H154M76 150H128" stroke="#91F2B6" stroke-width="7" stroke-linecap="round"/>
    <text x="28" y="188" fill="#EAF6F8" font-family="Inter, ui-sans-serif, system-ui, sans-serif" font-size="24" font-weight="720">技能包</text>
    <text x="28" y="214" fill="#8EA8B2" font-family="Inter, ui-sans-serif, system-ui, sans-serif" font-size="15">说明、清单、参考资料</text>
  </g>

  <path d="M312 288H338" stroke="#73E5F3" stroke-width="4" stroke-linecap="round"/>
  <path d="M330 278L342 288L330 298" stroke="#73E5F3" stroke-width="4" stroke-linecap="round" stroke-linejoin="round"/>
  <path d="M578 288H604" stroke="#73E5F3" stroke-width="4" stroke-linecap="round"/>
  <path d="M596 278L608 288L596 298" stroke="#73E5F3" stroke-width="4" stroke-linecap="round" stroke-linejoin="round"/>
  <path d="M844 288H870" stroke="#73E5F3" stroke-width="4" stroke-linecap="round"/>
  <path d="M862 278L874 288L862 298" stroke="#73E5F3" stroke-width="4" stroke-linecap="round" stroke-linejoin="round"/>

  <g transform="translate(84 438)">
    <rect width="1032" height="118" rx="26" fill="#0A202A" stroke="#244D5D"/>
    <text x="30" y="38" fill="#EAF6F8" font-family="Inter, ui-sans-serif, system-ui, sans-serif" font-size="22" font-weight="700">生成结果独立于目标仓库。</text>
    <text x="30" y="70" fill="#8EA8B2" font-family="Inter, ui-sans-serif, system-ui, sans-serif" font-size="17">不上源码，不安装依赖。</text>
    <text x="30" y="96" fill="#8EA8B2" font-family="Inter, ui-sans-serif, system-ui, sans-serif" font-size="17">不写目标仓库，不做运行时注册。</text>
    <rect x="814" y="39" width="188" height="42" rx="21" fill="#10342D" stroke="#91F2B6"/>
    <text x="876" y="66" fill="#91F2B6" font-family="Inter, ui-sans-serif, system-ui, sans-serif" font-size="17" font-weight="700">只读</text>
  </g>

  <defs>
    <radialGradient id="cyanGlow" cx="0" cy="0" r="1" gradientUnits="userSpaceOnUse" gradientTransform="translate(1026 80) rotate(90) scale(210)">
      <stop stop-color="#73E5F3"/>
      <stop offset="1" stop-color="#73E5F3" stop-opacity="0"/>
    </radialGradient>
    <radialGradient id="greenGlow" cx="0" cy="0" r="1" gradientUnits="userSpaceOnUse" gradientTransform="translate(165 558) rotate(90) scale(250)">
      <stop stop-color="#91F2B6"/>
      <stop offset="1" stop-color="#91F2B6" stop-opacity="0"/>
    </radialGradient>
  </defs>
</svg>
